<?xml version="1.0" encoding="utf-8"?>
<!-- Generator: Adobe Illustrator 23.1.0, SVG Export Plug-In . SVG Version: 6.00 Build 0)  -->
<svg version="1.1" id="Слой_1" xmlns="http://www.w3.org/2000/svg" xmlns:xlink="http://www.w3.org/1999/xlink" x="0px" y="0px"
	 viewBox="0 0 200 200" style="enable-background:new 0 0 200 200;" xml:space="preserve">
<style type="text/css">
	.st0{fill:#895156;}
</style>
<g id="A110_Calendar_Real_Estate_Home_House">
	<path class="st0" d="M174.64,28.62h-7.1v-2.1c0-8.5-7.4-15.6-16.4-15.6s-16.4,7.1-16.4,15.6v2.1h-69.4v-2.1
		c0-8.6-7.4-15.7-16.3-15.7s-16.4,7.1-16.4,15.6v2.1h-7.1c-14.1,0.1-25.6,11.1-25.6,24.6v111.2c0,13.5,11.5,24.5,25.6,24.5h148.7
		c14.1,0,25.6-11,25.6-24.5V53.12C200.34,39.62,188.74,28.62,174.64,28.62z M144.54,26.42c0-8.5,14.1-8.5,14.1,0v15.6h-14.1V26.42z
		 M42.34,26.42c0-8.5,14.1-8.5,14.1,0v15.6h-14.1C42.34,42.12,42.34,26.42,42.34,26.42z M174.64,179.62H25.94
		c-8.9,0-16.4-7.1-16.4-15.6v-95.3h120.8c5.9,0,5.9-8.9,0-8.9H9.64v-6.8c0-8.5,7.4-15.6,16.4-15.6h7.1v8.9c0.1,2.6,2.2,4.6,4.8,4.6
		h23.4c2.6,0,4.7-2,4.8-4.6v-8.9h69.8v8.9c0.1,2.6,2.2,4.6,4.8,4.6h23.4c2.6,0,4.7-2,4.8-4.6v-8.9h7.1c8.9,0,16.4,7.1,16.4,15.6v6.8
		h-32.7c-5.9,0-5.9,8.9,0,8.9h32.7v95.6C191.04,172.52,183.54,179.62,174.64,179.62z"/>
	<path class="st0" d="M146.04,107.42l-44.6-31.3c-1.7-1.1-3.9-1.1-5.6,0l-21.2,14.6c-1.1-4.5-4.7-7.8-9.3-8.5
		c-1.2-5.4-6-9.2-11.5-9.2h-23.4c-13.8,0-15.6,19.5-2.2,22c1.1,5.5,6,9.4,11.5,9.2h14.9l-5.3,3.6c-2,1.4-2.6,4.2-1.2,6.2
		c0.8,1.2,2.3,2,3.8,2h3.7v50.8c0.1,2.6,2.2,4.6,4.8,4.6h26.8c2.6,0,4.7-2,4.8-4.6v-22.8c0-8.2,13.4-8.2,13.4,0v22.4
		c0.1,2.6,2.2,4.6,4.8,4.6h24.9c2.6,0,4.7-2,4.8-4.6v-50.8h3.7C147.94,115.62,149.74,109.92,146.04,107.42z M37.44,92.92
		c0-1.4,0.8-2.5,0-3.9c-0.9-1.5-2.4-2.4-4.1-2.5h-2.6c-3,0-3-4.6,0-4.6h23c3,0,1.9,2.8,1.9,4.6c0.1,2.4,2.1,4.3,4.5,4.3h2.6
		c3,0,3,4.6,0,4.6h-23.4C38.24,95.12,37.44,94.02,37.44,92.92z M98.44,85.12l30.5,21.6h-61.7L98.44,85.12z M130.44,161.82h-15.7
		v-17.8c0-8.2-7.4-15.3-16-15.3s-16,7.1-16,15.3v17.8h-17.4v-46.2h65L130.44,161.82z"/>
	<path class="st0" d="M165.34,81.92h-2.6c-1.2-5.2-5.8-8.9-11.2-8.9h-14.1c-6.3,0-11.5,5-11.5,11s5.2,11,11.5,11h2.6
		c1.4,5.3,6.1,8.9,11.5,8.9h13.8c6.2,0.1,11.3-4.8,11.5-11C176.84,86.82,171.64,81.92,165.34,81.92z M165.34,95.42h-14.1
		c-3,0-1.9-2.8-1.9-4.6c-0.1-2.4-2.1-4.3-4.4-4.3h-7.4c-3,0-3-4.6,0-4.6h14.1c3,0,1.9,2.8,1.9,4.6c0.1,2.4,2.1,4.3,4.4,4.3h7.4
		C168.34,90.72,168.34,95.42,165.34,95.42z"/>
</g>
</svg>
