<?xml version="1.0" encoding="utf-8"?>
<!-- Generator: Adobe Illustrator 23.1.0, SVG Export Plug-In . SVG Version: 6.00 Build 0)  -->
<svg version="1.1" id="Слой_1" xmlns="http://www.w3.org/2000/svg" xmlns:xlink="http://www.w3.org/1999/xlink" x="0px" y="0px"
	 viewBox="0 0 200 193" style="enable-background:new 0 0 200 193;" xml:space="preserve">
<style type="text/css">
	.st0{fill:#FEEEE5;}
</style>
<title>hands</title>
<g id="A112_Agreement_Estate_Handshake_House_Real">
	<path class="st0" d="M155.7,146.2l-4-3.9l12.7-12.2c0.6-0.5,0.9-1.2,1-1.9l1.3-5.1c1.6,0.9,3.7,0.7,5-0.7l22.7-21.8
		c1.6-1.5,1.7-4.1,0.1-5.7c0,0-0.1-0.1-0.1-0.1L142.7,45c-1.7-1.6-4.3-1.6-6,0L114,66.8c-0.3,0.3-0.3,0.6-0.7,0.6
		c-5.3-2.3-11-3.2-16.3-1.6c-4.7,1.3-8,4.5-12,7.1c0-0.9-0.5-1.8-1.3-2.3L61,48.8c-1.7-1.6-4.3-1.6-6,0L3.3,99
		c-1.6,1.5-1.7,4.1-0.1,5.7c0,0,0.1,0.1,0.1,0.1L26,126.6c0.4,0.5,1,0.9,1.7,1L30,135c0.3,0.6,0.6,1.1,1,1.6l6,5.8l-17.3,16.4
		c-5,4.9-5,12.9-0.1,17.9c0,0,0.1,0.1,0.1,0.1c5.3,4.8,13.4,4.8,18.7,0l0,0c3.3,7.7,13.7,10.2,20.3,5.1c3.7,8,15,10.3,21.7,4.2l1-1
		c3.3,8.4,15,10.6,21.7,4.2l18-17.7c6.3,1.6,13.3-1.3,16-7.4l0,0c5.5,5.1,14.2,4.8,19.3-0.6C161,159.1,160.7,151,155.7,146.2z
		 M139.7,53.7l46,44.3L169,114.1l-46-44.3L139.7,53.7z M92.7,77.4c3.3-2.6,6.7-4.8,11.3-4.2c2,0.4,4,0.9,6,1.6c2,1,3.7,1.9,5.7,1
		l1-0.6l43,41.5l-2.3,8.7l-11.7,11.5L97,90c-0.8-0.7-1.9-1.2-3-1.3c-3.7,0-8,1.9-11.3,2.9c-4.3,1-8.7,1.9-13,1.6c-2,0-9.3-1.3-9-4.5
		c0.3-1.6,2.7-2.6,3.7-3.2c1.6-0.7,3.3-1.2,5-1.6c2-0.7,4.7-0.3,6.7-1.3c3-0.3,6.3-0.3,9.3-1.3C88,80.6,90.6,79.3,92.7,77.4
		L92.7,77.4z M12.3,101.9l46-44.7L75,73.3c-0.3,0-0.3,0.3-0.7,0.6l-1,1L73,75.2l-0.3,0.3c-8.3,1-26,6.8-19.3,18.3l-25,24.4
		L12.3,101.9z M61.7,168.1l-7.3,7.1c-3.7,3.5-10.3-0.6-8-5.1c1-2.2,3.3-3.5,1.3-6.1c-1.2-1.9-3.6-2.5-5.5-1.3
		c-0.3,0.2-0.6,0.4-0.8,0.7l-8.7,8.4c-4.7,4.2-11.7-2.3-7-6.8L43,148.5l20,19.3C62.5,167.5,62,167.6,61.7,168.1z M74.3,180.3
		c-2,1.8-5,1.8-7,0c-1.8-1.7-1.8-4.5-0.1-6.3c0,0,0.1-0.1,0.1-0.1l0,0c0.3-0.3,0.7-0.6,0.7-1l4,4.2c1,0.9,2.1,1.7,3.3,2.3
		L74.3,180.3z M97,183.8c-3.7,3.5-9.7-0.3-8.3-4.8c2.4-1.4,4.3-3.5,5.3-6.1l1,1c2.4,2.2,5.4,3.6,8.7,3.9L97,183.8z M150,158.8
		c-2,1.8-5,1.8-7,0l-8.7-8.4c-1.7-1.6-4.3-1.6-6,0c-2.3,2.3-0.7,4.2,0.7,6.4c3.3,4.5-3.7,9.6-7.7,5.8l-7.3-7.1l0,0
		c-3.7-3.5-9.7,1.9-6,5.8l0,0c2,1.9,1.7,4.5,0,6.4c-2,1.8-5,1.8-7,0l-9.3-9c-2.7-2.6-7.3-0.6-7,2.9c0,1.9,2,3.2,2.3,4.8
		c0.4,1.8-0.2,3.7-1.7,4.8c-0.3,0.3-0.7,0.6-1,0.6c-0.2,0-0.5,0.1-0.7,0.3c-1.9,0.6-3.9,0.1-5.3-1.3l-9.3-9.4l0,0l-23.3-22.5l0,0
		l-8-7.7l-2.7-8L51,108l9-9l0,0c10,5.1,22.7,1,32.7-1.6l49.7,47.9l0,0l7.3,6.8c1.9,1.4,2.4,4.1,1,6
		C150.5,158.3,150.2,158.6,150,158.8C149,159.7,152,157.1,150,158.8L150,158.8z"/>
	<path class="st0" d="M29.3,107.3c6.7,0,6.7-10,0-10S22.7,107.3,29.3,107.3z"/>
	<path class="st0" d="M173.7,97.7c0-6.4-10-6.1-10,0S173.7,103.8,173.7,97.7z"/>
	<path class="st0" d="M16.7,60.7c6.7,0,12.7-5.5,12.7-12.2c0-6.4-5.7-12.2-12.7-12.2C9.8,36.2,4.1,41.7,4,48.5c0,0,0,0,0,0
		C4.4,55.3,9.9,60.6,16.7,60.7z M16.7,44.7c5.3,0,5.3,8,0,8S11.3,44.7,16.7,44.7z"/>
	<path class="st0" d="M181.3,36.6c8,0,14.7-6.4,14.7-14.1s-6.7-14.1-14.7-14.1s-14.7,6.4-14.7,14.1S173.3,36.6,181.3,36.6z
		 M181.3,16.4c8,0,8,12.2,0,12.2S173.3,16.4,181.3,16.4z"/>
	<path class="st0" d="M166.7,165.2c-5.3,0-5.3,8,0,8H196c5.3,0,5.3-8,0-8H166.7z"/>
	<path class="st0" d="M196,177.1h-29.3c-5.3,0-5.3,8,0,8H196C201.3,185.1,201.3,177.1,196,177.1z"/>
	<path class="st0" d="M4.3,133.1h12c5.3,0,5.3-8,0-8h-12c-2.2,0-4,1.8-4,4S2.1,133.1,4.3,133.1z"/>
	<path class="st0" d="M20.3,141.1c-0.1-2.3-2-4.2-4.3-4.2H4c-5.3,0-5.3,8,0,8h12C18.2,145,20.2,143.3,20.3,141.1
		C20.3,141.1,20.3,141.1,20.3,141.1z"/>
	<path class="st0" d="M71,28h0.7v24.4c0.1,2.3,2,4.2,4.3,4.2h13.7c2.3,0,4.2-1.8,4.3-4.2v-8c0-3.5,5.7-3.5,5.7,0v8
		c0.1,2.3,2,4.2,4.3,4.2h13.3c2.3,0,4.3-1.8,4.3-4.2V28h1c2.2,0.2,4.1-1.5,4.3-3.7c0.1-1.5-0.6-3-1.9-3.7L99.7,1
		c-1.5-1.3-3.8-1.3-5.3,0l-26,19.9C65.3,23.1,67,28,71,28z M112.7,48.6h-5v-4.2c-0.2-6.1-5.2-11-11.3-10.9
		C90.3,33.2,85.2,38,85,44.1c0,0.1,0,0.2,0,0.3v4.2h-5.3V28h32.7v20.5L112.7,48.6z M96.3,9.6L110,20.3H82.7L96.3,9.6z"/>
</g>
</svg>
