<svg id="Слой_1" data-name="Слой 1" xmlns="http://www.w3.org/2000/svg" viewBox="0 0 200 190"><defs><style>.cls-1{fill:#895156;}</style></defs><title>house_key</title><g id="A117_Home_House_Real_Estate_Key" data-name="A117 ,Home ,House ,Real Estate ,Key"><path class="cls-1" d="M155.25,49.85a10.67,10.67,0,1,0,11,10.67A10.94,10.94,0,0,0,155.25,49.85Zm0,12.93c-3.33,0-3.33-5.17,0-5.17C158.58,57.93,158.58,62.78,155.25,62.78Z" transform="translate(0 -3)"/><path class="cls-1" d="M102.27,160.69h44c21,0,40.31-12.28,49-30.38,9.66-20.35,4.32-45.56-13-60.42,5-18.1-5.66-37.48-23.65-43.95-18.66-6.78-40,2.27-48,19.71H34a2,2,0,0,0-1.33.33L16,51.15a4.12,4.12,0,0,0-1.67,6.78L31,74.73A5,5,0,0,0,34,76H45a3.27,3.27,0,0,0,3-1.3l5.33-5.81,6.33,5.81a4.15,4.15,0,0,0,3,1H72a4.34,4.34,0,0,0,4.33-4.2v-1L85,75.06a4.87,4.87,0,0,0,2,.64h23.66a38.82,38.82,0,0,0,68.62,2.59,43.24,43.24,0,0,1,8,50.41c-7.66,14.54-23.65,24.23-40.64,24.23H102.27V128.7H112.6a4.08,4.08,0,0,0,2.34-7.43L63,84.75a4.63,4.63,0,0,0-5,0L6,120.94a4.08,4.08,0,0,0,2.33,7.44H19v56.54H4c-5.33,0-5.33,8.08,0,8.08H166.57c5.34,0,5.34-8.08,0-8.08h-8.33V172.64c0-5.17-8.32-5.17-8.32,0v12.28h-4.33V172.64c0-5.17-8.33-5.17-8.33,0v12.28h-4.33V172.64c0-5.17-8.33-5.17-8.33,0v12.28h-4.33V172.64c0-5.17-8.33-5.17-8.33,0v12.28H101.61l.66-24.23ZM87.62,67.3l-14-7.43a4.33,4.33,0,0,0-6.33,3.55V67.3H63.63L55.3,59.55a4,4,0,0,0-6,.32L43,67.3H35.31l-10.66-11,9.66-2.91h73.3a32.53,32.53,0,0,0,0,13.89Zm57.63,22c-14,0-26.65-10-29.32-23.26-3-14.22,6-28.76,20.33-33.28A30.81,30.81,0,0,1,170.57,45a28.55,28.55,0,0,1-3.66,35.22A30.51,30.51,0,0,1,145.25,89.27ZM60.63,92.83l39,27.14H21.32Zm9,92.09H52.3V167.15c0-11,17.33-11,17.33,0Zm8.33,0V167.15c0-9.05-7.67-16.48-17-16.48s-17,7.43-17,16.48v17.77H27.32V128.38H94v56.54Z" transform="translate(0 -3)"/><path class="cls-1" d="M16.66,27.23H29.32A12.47,12.47,0,0,0,42,39.52H58.63c6.67,0,12.66-5.5,12.66-12.29s-6.33-12-13-12H54A12.46,12.46,0,0,0,41.31,3h-25C9.66,3,3.66,8.49,3.66,15.28S10,27.23,16.66,27.23Zm0-16.15h25c2.67,0,5,2.91,4,5.49-.66,1.62-1.33,2.91-.33,4.53A3.84,3.84,0,0,0,49,23H58.3c5.33,0,5.33,8.08,0,8.08H41.64c-2.66,0-5-2.9-4-5.49C38.31,24,39,22.71,38,21.1a3.85,3.85,0,0,0-3.67-1.94H16.66C11.33,19.16,11.33,11.08,16.66,11.08Z" transform="translate(0 -3)"/><rect class="cls-1" x="133.26" y="125.38" width="8.33" height="8.08"/><rect class="cls-1" x="141.59" y="117.3" width="8.33" height="8.08"/><rect class="cls-1" x="133.26" y="109.22" width="8.33" height="8.08"/><rect class="cls-1" x="141.59" y="101.14" width="8.33" height="8.08"/></g></svg>