<?xml version="1.0" encoding="utf-8"?>
<!-- Generator: Adobe Illustrator 23.1.0, SVG Export Plug-In . SVG Version: 6.00 Build 0)  -->
<svg version="1.1" id="Слой_1" xmlns="http://www.w3.org/2000/svg" xmlns:xlink="http://www.w3.org/1999/xlink" x="0px" y="0px"
	 viewBox="0 0 200 187" style="enable-background:new 0 0 200 187;" xml:space="preserve">
<style type="text/css">
	.st0{fill:#FEEEE5;}
</style>
<title>interface</title>
<g id="A114_Computer_Real_Estate_Home">
	<path class="st0" d="M187,19.7h-29.4c-2.1-0.1-4,1.5-4.1,3.7s1.5,4,3.7,4.1c0.1,0,0.3,0,0.4,0H187c2.3-0.1,4.3,1.7,4.4,4v88.3h-8.2
		V39.3c-0.2-2.3-2.1-4.1-4.4-4h-42.4V25l6.5,3.1c4.8,2.5,8.9-4.7,4.1-6.8L104.3,0.5c-1.3-0.6-2.8-0.6-4.1,0L57.4,21.6
		c-4.8,2.5-1,9.3,4.1,6.8l6.5-3.1v10.3H21.2c-2.3-0.1-4.3,1.7-4.5,4v80.5H8.6V31.9c0.2-2.3,2.1-4.1,4.4-4h33.5
		c2.1,0.1,4-1.5,4.1-3.7c0.1-2.1-1.5-4-3.7-4.1c-0.1,0-0.3,0-0.4,0H13c-7.2,0-13,5.3-13,11.8v110c0,6.5,5.8,11.8,13,11.8h60.8
		l-10.3,25.5H45.1c-2.1-0.1-4,1.5-4.1,3.7c-0.1,2.1,1.5,4,3.7,4.1c0.1,0,0.3,0,0.4,0h106c2.1,0.1,4-1.5,4.1-3.7
		c0.1-2.1-1.5-4-3.7-4.1c-0.1,0-0.3,0-0.4,0H132l-10.3-25.5H187c7.2,0,13-5.3,13-11.8v-110C200.3,25.3,194.2,19.7,187,19.7z
		 M102.2,8.9l25.6,12.4v41.3h-11.3V47.1c0-7.1-6.5-13.1-14.3-13.1s-14,6-14,13.1v15.5H76.9V21.3L102.2,8.9z M108,62.6H96.8V47.1
		c0-6.5,11.3-6.5,11.3,0L108,62.6z M123,179.2H72.8l10.3-25.5h29.7L123,179.2z M187,146H13.3c-2.3,0.1-4.3-1.7-4.4-4v-14h36.6
		c2.1,0.1,4-1.5,4.1-3.7c0.1-2.1-1.5-4-3.7-4.1c-0.1,0-0.3,0-0.4,0H25.6V43.1h42.7v23.3c0.2,2.3,2.1,4.1,4.4,4H132
		c2.3,0.1,4.3-1.7,4.4-4V43.1H175v76.8H73.8c-2.1-0.1-4,1.5-4.1,3.7c-0.1,2.1,1.5,4,3.7,4.1c0.1,0,0.3,0,0.4,0h117.9v14.3
		C191.8,144.1,189.7,146,187,146z"/>
	<path class="st0" d="M38.3,89.7h38.6c2.1,0.1,4-1.5,4.1-3.7c0.1-2.1-1.5-4-3.7-4.1c-0.1,0-0.3,0-0.4,0H38.3c-2.1-0.1-4,1.5-4.1,3.7
		c-0.1,2.1,1.5,4,3.7,4.1C38,89.7,38.2,89.7,38.3,89.7z"/>
	<path class="st0" d="M38.3,101.5h38.6c2.1,0.2,4-1.5,4.2-3.6c0.2-2.1-1.5-4-3.6-4.2c-0.2,0-0.4,0-0.6,0H38.3
		c-2.1-0.2-4,1.5-4.2,3.6c-0.2,2.1,1.5,4,3.6,4.2C37.9,101.5,38.1,101.5,38.3,101.5z"/>
	<path class="st0" d="M166.5,109.3c-0.2-2.3-2.1-4.1-4.4-4H38.3c-2.1-0.1-4,1.5-4.1,3.7c-0.1,2.1,1.5,4,3.7,4.1c0.1,0,0.3,0,0.4,0
		h124.1C164.5,113.1,166.4,111.4,166.5,109.3z"/>
	<path class="st0" d="M97.8,131.4c-2.2-0.2-4.2,1.5-4.3,3.8c-0.2,2.2,1.5,4.2,3.8,4.3c0.2,0,0.4,0,0.6,0c2.2,0.2,4.2-1.5,4.3-3.8
		c0.2-2.2-1.5-4.2-3.8-4.3C98.1,131.3,98,131.3,97.8,131.4z"/>
	<rect x="144.9" y="89.7" class="st0" width="8.6" height="7.8"/>
	<rect x="153.5" y="81.9" class="st0" width="8.6" height="7.8"/>
	<rect x="144.9" y="74.2" class="st0" width="8.6" height="7.8"/>
	<rect x="153.5" y="66.4" class="st0" width="8.6" height="7.8"/>
</g>
</svg>
