<?xml version="1.0" encoding="utf-8"?>
<!-- Generator: Adobe Illustrator 23.1.0, SVG Export Plug-In . SVG Version: 6.00 Build 0)  -->
<svg version="1.1" id="Слой_1" xmlns="http://www.w3.org/2000/svg" xmlns:xlink="http://www.w3.org/1999/xlink" x="0px" y="0px"
	 viewBox="0 0 201 200" style="enable-background:new 0 0 201 200;" xml:space="preserve">
<style type="text/css">
	.st0{fill:#FEEEE5;}
</style>
<title>map</title>
<g id="A123_Home_Location_Map">
	<path class="st0" d="M197.3,54.4l-42.5-8.5H153l-41.8,8.5c-1-33.5-31.6-58.8-64.3-53.7C14.9,5.4-7.5,39.3,2.3,70.8
		c4.8,15,15.6,27.7,26.2,39c5.8,6.2,11.9,12,18,18.1c2.4,2.4,5.4,7.5,8.8,7.5s6.8-5.1,9.2-7.5v54.7c0,1.9,1.3,3.5,3.1,4.1l42.5,13
		c0.6,0.3,1.4,0.3,2,0l41.8-8.6l41.8,8.6c2.3,0.5,4.5-1,5-3.3c0.1-0.3,0.1-0.5,0.1-0.8V58.8C200.7,56.8,199.3,54.7,197.3,54.4z
		 M55.4,125.2C35.3,104,2,78.7,9.5,45.1c6.1-27.4,35.7-43.4,61.9-33.9c20.1,7.2,34.4,28.7,30.9,50.6c-2,12.3-9.5,23.3-17.3,32.8
		C75.8,105.3,65.3,114.9,55.4,125.2z M107.1,189.8l-34-10.3v-59.9c13.3-13.3,27.2-27.7,34-44.1V189.8z M149.6,183.7l-34,6.8V62.2
		l34-6.8V183.7z M192.2,190.2l-34-6.8V55.4l34,6.8V190.2z"/>
	<path class="st0" d="M80.6,82.1V49.6h1c2.4-0.1,4.3-2,4.2-4.4c0-1.4-0.7-2.6-1.8-3.4L58.1,20.9c-1.6-1.4-3.9-1.4-5.4,0L26.5,41.7
		c-1.8,1.5-2.1,4.2-0.6,6c0.8,1,2,1.6,3.3,1.5h1v32.5c0,2.4,2,4.4,4.4,4.4h14c2.4-0.1,4.3-2,4.4-4.4v-12c0-3.8,5.8-3.8,5.8,0v12
		c0,2.4,2,4.4,4.4,4.4h13.6C78.5,86.5,80.6,84.5,80.6,82.1z M55.4,29.7l14,11.3H41.5L55.4,29.7z M72.1,78H67v-7.9
		c0.2-6.4-4.8-11.7-11.2-11.9S44.1,63,43.9,69.4c0,0.2,0,0.5,0,0.7V78h-5.5V50h33.3v28H72.1z"/>
	<path class="st0" d="M119.7,24.3h38.1c5.4,0,5.4-8.6,0-8.6h-38.1C114.3,15.7,114.3,24.3,119.7,24.3z"/>
	<path class="st0" d="M149.6,32.8c0,2.3,1.8,4.2,4.1,4.4h21.4c5.4,0,5.4-8.5,0-8.5h-21.4C151.5,28.9,149.8,30.6,149.6,32.8z"/>
	<rect x="13.6" y="182.6" class="st0" width="8.5" height="8.6"/>
	<rect x="22.1" y="174.1" class="st0" width="8.5" height="8.6"/>
	<rect x="13.6" y="165.5" class="st0" width="8.5" height="8.6"/>
	<rect x="22.1" y="157" class="st0" width="8.5" height="8.6"/>
	<rect x="13.6" y="148.4" class="st0" width="8.5" height="8.6"/>
	<rect x="22.1" y="139.9" class="st0" width="8.5" height="8.6"/>
</g>
</svg>
