<?xml version="1.0" encoding="utf-8"?>
<!-- Generator: Adobe Illustrator 23.1.0, SVG Export Plug-In . SVG Version: 6.00 Build 0)  -->
<svg version="1.1" id="Слой_1" xmlns="http://www.w3.org/2000/svg" xmlns:xlink="http://www.w3.org/1999/xlink" x="0px" y="0px"
	 viewBox="0 0 200 200" style="enable-background:new 0 0 200 200;" xml:space="preserve">
<style type="text/css">
	.st0{fill:#FEEEE5;}
</style>
<title>save</title>
<g id="A113_Appraisal_Real_Estate_School">
	<path class="st0" d="M195.1,114.7c-6.5-6.4-17.4-6.4-24.2,0l-33.7,31.7c-0.3-1-1-1.9-1.4-2.9c2.4-3.5-2.4-7.7-6.1-5.1
		c-1.8-0.9-3.8-1.4-5.8-1.6l-69.2-5.4c3.8-1.9,2.4-7.3-2-7.3c-2.2-0.1-4.1,1.6-4.2,3.8c-0.1,1.4,0.6,2.8,1.8,3.6
		c-6.9,0.4-13.6,2.8-19.1,7l-27.6,23c-1.7,1.6-2,4.2-0.3,5.8L37,198.9c1.5,1.4,3.8,1.5,5.5,0.3l14.3-9.6l64.1,4.2
		c8.7,0.6,17.2-2.4,23.5-8.3l50.8-47.7C201.6,131,201.6,120.8,195.1,114.7C188.3,108.3,201.6,120.8,195.1,114.7z M189,131.7
		l-50.8,47.7c-4.6,4.2-10.7,6.4-17,6.1l-64.1-3.8L37,165c-4.1-3.5-9.9,2.6-5.5,6.1l17.4,14.1l-8.2,5.8l-28-26.3L37,144.5
		c4.4-3.8,10.6-5.4,16.4-5.1l69.5,5.4c3.9,0.1,6.9,3.4,6.8,7.2c0,0.6-0.1,1.2-0.3,1.8c-0.3,0.6-0.7,1-0.7,1.6
		c-1.5,2.3-4.1,3.6-6.8,3.5L76.2,157c-5.4-0.3-5.8,7.7-0.3,8l45.7,1.9c6.4,0.4,12.3-3,15.3-8.6l40.2-37.8
		C184.9,113.1,196.9,124.3,189,131.7L189,131.7z"/>
	<path class="st0" d="M16.9,90.1c4.5,0.1,8.8-1.7,11.9-4.8l33.8-31.7c1.8,4.4,5.6,7.7,10.2,9c0.7,4.2,6.5,4.8,8.2,1l64.8,5.1
		c8.2,0.7,16.4-1.8,22.8-7l27.6-23c1.7-1.6,2-4.2,0.3-5.8L163.1,1.1c-1.5-1.4-3.8-1.5-5.4-0.3l-14.3,9.6L79.3,6.3
		c-8.7-0.6-17.2,2.4-23.5,8.3l-50.8,48C-5.6,72.5,1.9,90.1,16.9,90.1z M10.7,68.3l50.8-47.7c4.6-4.2,10.8-6.4,17-6.1l64.1,4.2
		l20.1,16.6c4.1,3.5,9.9-2.6,5.5-6.1l-17.3-14.1l8.2-5.8l28,26.2l-23.9,19.8c-4.4,3.8-10.6,5.4-16.4,5.1l-69.5-5.4
		c-3.9-0.1-6.9-3.4-6.8-7.2c0-0.6,0.1-1.2,0.3-1.8c0.3-0.6,0.7-1,0.7-1.6c1.5-2.3,4.1-3.6,6.8-3.5l45.7,1.9c5.5,0.3,5.8-7.7,0.3-8
		l-45.7-1.9c-6.4-0.4-12.3,3-15.3,8.6L23,79.5C15.2,86.9,3.2,75.7,10.7,68.3z"/>
	<path class="st0" d="M138.9,77.3c-4.8,2.9,0,9.6,4.4,6.7C148.1,81.1,143.7,74.4,138.9,77.3C137.5,77.9,141,76,138.9,77.3z"/>
	<path class="st0" d="M142,90.7c0,5.1,8.5,5.1,8.5,0S142,85.6,142,90.7z"/>
	<path class="st0" d="M136.9,74.7c3.7-3.5-2.1-9.3-6.1-5.8C127,72.8,132.8,78.2,136.9,74.7C137.5,73.8,135.8,75.4,136.9,74.7z"/>
	<path class="st0" d="M149.5,125c2-4.8-5.8-7.7-7.8-2.9l0,0C139.6,126.9,147.4,129.8,149.5,125C149.5,124.6,148.8,126.6,149.5,125z"
		/>
	<path class="st0" d="M137.5,136.8c3.1,1.9,7.1-0.6,6.5-4.1s-5.4-4.5-7.8-1.6l0,0C135,133,135.6,135.5,137.5,136.8
		C138.2,137.1,136.2,135.8,137.5,136.8z"/>
	<path class="st0" d="M152.9,101.3c-0.4-5.1-9.2-4.5-8.5,0.6S153.2,106.4,152.9,101.3z"/>
	<path class="st0" d="M152.5,113.4c0.7-5.1-7.8-6.1-8.5-1C143.3,117.2,151.8,118.5,152.5,113.4C152.9,113.1,152.5,115.4,152.5,113.4
		z"/>
	<path class="st0" d="M47.9,99.4c5.5,0,5.5-7.7,0.3-8C42.8,91,42.4,99.4,47.9,99.4z"/>
	<path class="st0" d="M48.2,121.4c2.2,0.1,4.1-1.6,4.2-3.8c0.1-2.2-1.6-4.1-3.8-4.2l0,0C42.8,112.8,42.4,121.4,48.2,121.4z"/>
	<path class="st0" d="M42.4,106.4c0,4.8,7.5,5.4,8.5,0.6C52,101.6,42.4,100.6,42.4,106.4z"/>
	<path class="st0" d="M55.7,86.6c2.4-4.2-4.1-8-7.2-4.2C44.8,86.9,53.3,91.4,55.7,86.6z"/>
	<path class="st0" d="M67,71.5c5.4,0,5.4-7.7,0.3-8C61.9,63.5,61.5,71.5,67,71.5z"/>
	<path class="st0" d="M61.9,77.9c3.4-3.5-2-8.6-6.1-5.8C51.3,76,58.1,82.1,61.9,77.9z"/>
	<path class="st0" d="M73.4,126.6h45.3c2.4,0,4.3-1.8,4.4-4.2V92l3.4,1.6c4.8,2.6,8.9-4.8,4.1-7l-32.4-16c-1.7-0.6-2.4,0-4.1,0
		L61.9,86.9c-4.8,2.6-1,9.6,4.1,7l3.4-1.6V123C69.4,125,71.1,126.6,73.4,126.6z M92.9,118.6v-11.2c0-4.2,6.5-4.2,6.5,0v11.2H92.9z
		 M114.7,118.6h-6.5v-11.2c0-6.1-5.4-11.2-11.9-11.2s-11.9,5.1-11.9,11.2v11.2h-6.5v-31l18.4-9.3l18.4,9.3V118.6z"/>
	<rect x="170.3" y="85.9" class="st0" width="8.5" height="8"/>
	<rect x="178.8" y="77.9" class="st0" width="8.5" height="8"/>
	<rect x="170.3" y="69.9" class="st0" width="8.5" height="8"/>
	<rect x="178.8" y="61.9" class="st0" width="8.5" height="8"/>
	<rect x="12.8" y="130.1" class="st0" width="8.5" height="8"/>
	<rect x="21.3" y="122.1" class="st0" width="8.5" height="8"/>
	<rect x="12.8" y="114.1" class="st0" width="8.5" height="8"/>
	<rect x="21.3" y="106.1" class="st0" width="8.5" height="8"/>
</g>
</svg>
