<svg id="Слой_1" data-name="Слой 1" xmlns="http://www.w3.org/2000/svg" viewBox="0 0 1930.6 1930.6"><defs><style>.cls-1{fill:#4d4d4d;fill-rule:evenodd;}</style></defs><title>male</title><path class="cls-1" d="M-1257.28,408l329.6,596.48,0-.06L-598,408c247.48,47.44,362.67,14.83,378.53,272.88V905.05C-395.83,1096-648.28,1215.6-928.7,1215.6S-1461.57,1096-1637.93,905.05V783.93c.11-12.62.19-24.23.19-34.62,0-332,114.32-291.25,380.46-341.36Z" transform="translate(1894 715)"/><path class="cls-1" d="M-1221.18-145.53c-31.68-12.66-78.91-8.52-70.62,41.2,21.54,73.33,8.7,130.5,77.85,119.64,26.93,187.46,144.88,328.62,286.31,328.62s259.38-141.16,286.3-328.62C-572.18,26.17-585-31-563.48-104.33c8.29-49.72-38.94-53.86-70.62-41.2,5-113.38,38.31-314.27-136.94-312.61-54.33-111.17-227.37-58.15-318.75-19.65-130,54.79-152.88,147.41-131.39,332.26Z" transform="translate(1894 715)"/><path class="cls-1" d="M-879.8,612l29.3-50.74,29.3-50.75a54,54,0,0,0,0-55.24A54,54,0,0,0-869,427.66H-986.24a54,54,0,0,0-47.84,27.62,54,54,0,0,0,0,55.24l29.3,50.75,29.3,50.74a53.93,53.93,0,0,0,47.84,27.62A54,54,0,0,0-879.8,612Z" transform="translate(1894 715)"/><path class="cls-1" d="M-879.8,612l29.3,294,29.3,294.06q.47,4.68.9,9.39a974.94,974.94,0,0,1-108.4,6.09,976.84,976.84,0,0,1-106.3-5.85c.3-3.22.6-6.43.92-9.63l29.3-294.06,29.3-294c10.14-101.8,27.55-160.07,47.84-160.07s37.7,58.27,47.84,160.07Z" transform="translate(1894 715)"/><path class="cls-1" d="M-928.7-715c-533.12,0-965.3,432.18-965.3,965.3s432.18,965.3,965.3,965.3S36.6,783.42,36.6,250.3-395.58-715-928.7-715Zm0,74.57c-491.93,0-890.73,398.8-890.73,890.73S-1420.63,1141-928.7,1141-38,742.24-38,250.3-436.76-640.43-928.7-640.43Z" transform="translate(1894 715)"/></svg>